<mxfile host="app.diagrams.net" modified="2023-03-12T12:21:35.976Z" agent="5.0 (X11; Linux x86_64) AppleWebKit/537.36 (KHTML, like Gecko) Chrome/110.0.0.0 Safari/537.36" etag="N7n95KNo8MM3fR5-kzI_" version="21.0.2" type="github">
  <diagram id="u2RXuAuM1ZONc2ouVt6J" name="Page-1">
    <mxGraphModel dx="1422" dy="769" grid="1" gridSize="10" guides="1" tooltips="1" connect="1" arrows="1" fold="1" page="1" pageScale="1" pageWidth="850" pageHeight="1100" math="0" shadow="0">
      <root>
        <mxCell id="0" />
        <mxCell id="1" parent="0" />
        <mxCell id="gTLzLT_ovjnBCT86g6D_-15" value="&lt;font style=&quot;font-size: 14px;&quot;&gt;Show&lt;/font&gt;" style="edgeStyle=orthogonalEdgeStyle;rounded=0;orthogonalLoop=1;jettySize=auto;html=1;entryX=0;entryY=0.409;entryDx=0;entryDy=0;entryPerimeter=0;strokeWidth=3;" parent="1" source="gTLzLT_ovjnBCT86g6D_-1" target="gTLzLT_ovjnBCT86g6D_-3" edge="1">
          <mxGeometry relative="1" as="geometry">
            <Array as="points">
              <mxPoint x="280" y="95" />
              <mxPoint x="280" y="95" />
            </Array>
          </mxGeometry>
        </mxCell>
        <mxCell id="gTLzLT_ovjnBCT86g6D_-22" style="edgeStyle=orthogonalEdgeStyle;rounded=0;orthogonalLoop=1;jettySize=auto;html=1;entryX=0;entryY=0.5;entryDx=0;entryDy=0;strokeWidth=3;" parent="1" source="gTLzLT_ovjnBCT86g6D_-1" target="gTLzLT_ovjnBCT86g6D_-21" edge="1">
          <mxGeometry relative="1" as="geometry">
            <Array as="points">
              <mxPoint x="130" y="410" />
              <mxPoint x="310" y="410" />
            </Array>
          </mxGeometry>
        </mxCell>
        <mxCell id="gTLzLT_ovjnBCT86g6D_-1" value="Landing Page" style="rounded=1;whiteSpace=wrap;html=1;fillColor=#fff2cc;strokeColor=#d6b656;" parent="1" vertex="1">
          <mxGeometry x="70" y="70" width="120" height="50" as="geometry" />
        </mxCell>
        <mxCell id="gTLzLT_ovjnBCT86g6D_-2" value="Library Catalog" style="rounded=1;whiteSpace=wrap;html=1;" parent="1" vertex="1">
          <mxGeometry x="140" y="110" width="90" height="30" as="geometry" />
        </mxCell>
        <mxCell id="gTLzLT_ovjnBCT86g6D_-3" value="Book Detail" style="rounded=1;whiteSpace=wrap;html=1;fillColor=#fff2cc;strokeColor=#d6b656;" parent="1" vertex="1">
          <mxGeometry x="340" y="50" width="120" height="110" as="geometry" />
        </mxCell>
        <mxCell id="gTLzLT_ovjnBCT86g6D_-5" value="Reserve" style="rounded=1;whiteSpace=wrap;html=1;fillColor=#dae8fc;strokeColor=#6c8ebf;" parent="1" vertex="1">
          <mxGeometry x="440" y="30" width="90" height="30" as="geometry" />
        </mxCell>
        <mxCell id="gTLzLT_ovjnBCT86g6D_-8" value="Lend" style="rounded=1;whiteSpace=wrap;html=1;fillColor=#f8cecc;strokeColor=#b85450;" parent="1" vertex="1">
          <mxGeometry x="440" y="70" width="90" height="30" as="geometry" />
        </mxCell>
        <mxCell id="gTLzLT_ovjnBCT86g6D_-12" value="Take back" style="rounded=1;whiteSpace=wrap;html=1;fillColor=#f8cecc;strokeColor=#b85450;" parent="1" vertex="1">
          <mxGeometry x="440" y="110" width="90" height="30" as="geometry" />
        </mxCell>
        <mxCell id="gTLzLT_ovjnBCT86g6D_-14" value="Edit" style="rounded=1;whiteSpace=wrap;html=1;fillColor=#f8cecc;strokeColor=#b85450;" parent="1" vertex="1">
          <mxGeometry x="440" y="150" width="90" height="30" as="geometry" />
        </mxCell>
        <mxCell id="gTLzLT_ovjnBCT86g6D_-16" value="Borrowed Books" style="rounded=1;whiteSpace=wrap;html=1;fillColor=#fff2cc;strokeColor=#d6b656;" parent="1" vertex="1">
          <mxGeometry x="315" y="240" width="120" height="60" as="geometry" />
        </mxCell>
        <mxCell id="gTLzLT_ovjnBCT86g6D_-18" value="Borrowed until&lt;br&gt;dates" style="rounded=1;whiteSpace=wrap;html=1;" parent="1" vertex="1">
          <mxGeometry x="275" y="290" width="100" height="40" as="geometry" />
        </mxCell>
        <mxCell id="gTLzLT_ovjnBCT86g6D_-19" value="Reserved Books" style="rounded=1;whiteSpace=wrap;html=1;" parent="1" vertex="1">
          <mxGeometry x="385" y="290" width="100" height="40" as="geometry" />
        </mxCell>
        <mxCell id="gTLzLT_ovjnBCT86g6D_-21" value="New Book Page" style="rounded=1;whiteSpace=wrap;html=1;fillColor=#fff2cc;strokeColor=#d6b656;" parent="1" vertex="1">
          <mxGeometry x="320" y="380" width="120" height="60" as="geometry" />
        </mxCell>
        <mxCell id="gTLzLT_ovjnBCT86g6D_-23" value="Reader Action" style="rounded=1;whiteSpace=wrap;html=1;fillColor=#dae8fc;strokeColor=#6c8ebf;" parent="1" vertex="1">
          <mxGeometry x="600" y="30" width="120" height="20" as="geometry" />
        </mxCell>
        <mxCell id="gTLzLT_ovjnBCT86g6D_-24" value="Librarian Action" style="rounded=1;whiteSpace=wrap;html=1;fillColor=#f8cecc;strokeColor=#b85450;" parent="1" vertex="1">
          <mxGeometry x="600" y="60" width="120" height="20" as="geometry" />
        </mxCell>
        <mxCell id="gTLzLT_ovjnBCT86g6D_-25" value="Add New Book" style="rounded=1;whiteSpace=wrap;html=1;fillColor=#f8cecc;strokeColor=#b85450;" parent="1" vertex="1">
          <mxGeometry x="410" y="370" width="90" height="30" as="geometry" />
        </mxCell>
        <mxCell id="gTLzLT_ovjnBCT86g6D_-26" value="Admin Dashboard" style="rounded=1;whiteSpace=wrap;html=1;fillColor=#fff2cc;strokeColor=#d6b656;" parent="1" vertex="1">
          <mxGeometry x="320" y="510" width="120" height="60" as="geometry" />
        </mxCell>
        <mxCell id="gTLzLT_ovjnBCT86g6D_-29" value="Admin Action" style="rounded=1;whiteSpace=wrap;html=1;fillColor=#d5e8d4;strokeColor=#82b366;" parent="1" vertex="1">
          <mxGeometry x="600" y="90" width="120" height="20" as="geometry" />
        </mxCell>
        <mxCell id="gTLzLT_ovjnBCT86g6D_-30" value="Add Librarian" style="rounded=1;whiteSpace=wrap;html=1;fillColor=#d5e8d4;strokeColor=#82b366;" parent="1" vertex="1">
          <mxGeometry x="430" y="490" width="100" height="30" as="geometry" />
        </mxCell>
        <mxCell id="gTLzLT_ovjnBCT86g6D_-31" value="Remove Librarian" style="rounded=1;whiteSpace=wrap;html=1;fillColor=#d5e8d4;strokeColor=#82b366;" parent="1" vertex="1">
          <mxGeometry x="430" y="525" width="100" height="30" as="geometry" />
        </mxCell>
        <mxCell id="UENm6vXJXYiIuP29thLv-4" value="" style="endArrow=classic;html=1;rounded=0;strokeWidth=3;entryX=0;entryY=0.5;entryDx=0;entryDy=0;" parent="1" target="gTLzLT_ovjnBCT86g6D_-26" edge="1">
          <mxGeometry width="50" height="50" relative="1" as="geometry">
            <mxPoint x="130" y="410" as="sourcePoint" />
            <mxPoint x="310" y="539.5" as="targetPoint" />
            <Array as="points">
              <mxPoint x="130" y="540" />
            </Array>
          </mxGeometry>
        </mxCell>
        <mxCell id="Ovcfzf1PyIIYaTwRFHqv-5" value="" style="endArrow=classic;html=1;rounded=0;entryX=0;entryY=0.5;entryDx=0;entryDy=0;strokeWidth=3;" edge="1" parent="1" target="gTLzLT_ovjnBCT86g6D_-16">
          <mxGeometry width="50" height="50" relative="1" as="geometry">
            <mxPoint x="130" y="270" as="sourcePoint" />
            <mxPoint x="380" y="330" as="targetPoint" />
          </mxGeometry>
        </mxCell>
        <mxCell id="Ovcfzf1PyIIYaTwRFHqv-6" value="Librarians" style="rounded=1;whiteSpace=wrap;html=1;" vertex="1" parent="1">
          <mxGeometry x="285" y="555" width="100" height="25" as="geometry" />
        </mxCell>
      </root>
    </mxGraphModel>
  </diagram>
</mxfile>
